<svg width="417" height="266" viewBox="0 0 417 266" fill="none" xmlns="http://www.w3.org/2000/svg">
<path d="M46.8303 14.6277L0.14736 255.974C-0.802276 260.883 2.95843 265.441 7.95808 265.441H32.5788L46.8303 14.6277Z" fill="#E75755"/>
<path d="M47.3914 13.651L16.449 250.615C15.423 258.473 21.54 265.441 29.464 265.441H74.8568L49.2639 12.7952L47.3914 13.651Z" fill="#3662C1"/>
<path d="M47.3912 13.6509L33.5399 249.104C33.0185 257.967 40.065 265.441 48.9431 265.441H116.642L47.3912 13.6509Z" fill="#6D89CF"/>
<path d="M46.8716 15.5728L53.6062 249.104C53.0849 257.967 60.1317 265.44 69.0095 265.44H136.709L46.8716 15.5728Z" fill="#3A49CD"/>
<path d="M371.003 265.441H104.068C97.4035 265.441 91.6908 260.678 90.4921 254.121L49.8742 31.9956C48.0301 21.9109 55.7759 12.6201 66.0277 12.6201H329.819C336.484 12.6201 342.197 17.3829 343.396 23.939L384.578 249.157C386.129 257.633 379.619 265.441 371.003 265.441Z" fill="white"/>
<path d="M55.1583 60.8435H350.329L342.761 18.905C342.104 15.2665 338.938 12.6201 335.241 12.6201H49.333C47.7706 12.6201 46.5904 14.0362 46.8717 15.5729L55.1583 60.8435Z" fill="#FA7269"/>
<path d="M62.0597 0C55.0031 0 49.2622 5.73741 49.2622 12.794H51.7207C51.7207 7.09274 56.3584 2.45536 62.0597 2.45536C67.7613 2.45536 72.4015 7.09274 72.4015 12.794C72.4015 13.9392 72.215 15.0392 71.8697 16.067C70.8538 19.1059 68.4644 21.5193 65.4408 22.5651C64.5571 22.8718 63.6224 23.0639 62.6488 23.1181V25.5769C63.785 25.5259 64.8787 25.3272 65.9187 24.9965C70.0691 23.6832 73.3122 20.3018 74.4335 16.067C74.71 15.0212 74.8572 13.9243 74.8572 12.794C74.8569 5.73741 69.1167 0 62.0597 0Z" fill="#3662C1"/>
<path d="M66.0179 24.2573C66.0179 24.5126 65.9818 24.762 65.9189 24.9964C65.5941 26.1687 64.5215 27.0284 63.2471 27.0284C61.7174 27.0284 60.4761 25.7873 60.4761 24.2573C60.4761 22.7272 61.7171 21.4858 63.2471 21.4858C64.1395 21.4858 64.9332 21.9099 65.441 22.565C65.8046 23.0339 66.0179 23.6199 66.0179 24.2573Z" fill="#3662C1"/>
<path d="M107.942 0C100.885 0 95.144 5.73741 95.144 12.794H97.5994C97.5994 7.09274 102.24 2.45536 107.941 2.45536C113.643 2.45536 118.28 7.09274 118.28 12.794C118.28 13.9392 118.094 15.0392 117.748 16.067C116.732 19.1059 114.343 21.5193 111.323 22.5651C110.439 22.8718 109.501 23.0639 108.528 23.1181V25.5769C109.664 25.5259 110.758 25.3272 111.797 24.9965C115.951 23.6832 119.194 20.3018 120.315 16.067C120.591 15.0212 120.739 13.9243 120.739 12.794C120.739 5.73741 114.999 0 107.942 0Z" fill="#3662C1"/>
<path d="M111.897 24.2573C111.897 24.5126 111.861 24.762 111.798 24.9964C111.473 26.1687 110.403 27.0284 109.126 27.0284C107.596 27.0284 106.355 25.7873 106.355 24.2573C106.355 22.7272 107.596 21.4858 109.126 21.4858C110.022 21.4858 110.815 21.9099 111.323 22.565C111.684 23.0339 111.897 23.6199 111.897 24.2573Z" fill="#3662C1"/>
<path d="M153.824 0C146.767 0 141.026 5.73741 141.026 12.794H143.481C143.481 7.09274 148.119 2.45536 153.823 2.45536C159.525 2.45536 164.163 7.09274 164.163 12.794C164.163 13.9392 163.976 15.0392 163.63 16.067C162.614 19.1059 160.225 21.5193 157.205 22.5651C156.321 22.8718 155.383 23.0639 154.41 23.1181V25.5769C155.543 25.5259 156.639 25.3272 157.679 24.9965C161.833 23.6804 165.073 20.3018 166.194 16.067C166.471 15.0212 166.618 13.9243 166.618 12.794C166.618 5.73741 160.877 0 153.824 0Z" fill="#3662C1"/>
<path d="M157.779 24.2573C157.779 24.5126 157.743 24.762 157.68 24.9964C157.355 26.1687 156.282 27.0284 155.008 27.0284C153.478 27.0284 152.237 25.7873 152.237 24.2573C152.237 22.7272 153.478 21.4858 155.008 21.4858C155.901 21.4858 156.694 21.9099 157.205 22.565C157.566 23.0339 157.779 23.6199 157.779 24.2573Z" fill="#3662C1"/>
<path d="M199.702 0C192.645 0 186.908 5.73741 186.908 12.794H189.363C189.363 7.09274 194.001 2.45536 199.702 2.45536C205.404 2.45536 210.044 7.09274 210.044 12.794C210.044 13.9392 209.858 15.0392 209.512 16.067C208.496 19.1059 206.107 21.5193 203.084 22.5651C202.2 22.8718 201.265 23.0639 200.292 23.1181V25.5769C201.424 25.5259 202.522 25.3272 203.561 24.9965C207.715 23.6804 210.955 20.3018 212.076 16.067C212.352 15.0212 212.5 13.9243 212.5 12.794C212.5 5.73741 206.76 0 199.702 0Z" fill="#3662C1"/>
<path d="M203.661 24.2573C203.661 24.5126 203.625 24.762 203.562 24.9964C203.237 26.1687 202.165 27.0284 200.89 27.0284C199.36 27.0284 198.119 25.7873 198.119 24.2573C198.119 22.7272 199.36 21.4858 200.89 21.4858C201.782 21.4858 202.576 21.9099 203.084 22.565C203.447 23.0339 203.661 23.6199 203.661 24.2573Z" fill="#3662C1"/>
<path d="M245.585 0C238.528 0 232.787 5.73741 232.787 12.794H235.242C235.242 7.09274 239.883 2.45536 245.584 2.45536C251.286 2.45536 255.923 7.09274 255.923 12.794C255.923 13.9392 255.737 15.0392 255.392 16.067C254.376 19.1059 251.986 21.5193 248.963 22.5651C248.082 22.8718 247.144 23.0639 246.17 23.1181V25.5769C247.306 25.5259 248.401 25.3272 249.44 24.9965C253.594 23.6832 256.837 20.3018 257.958 16.067C258.234 15.0212 258.381 13.9243 258.381 12.794C258.382 5.73741 252.641 0 245.585 0Z" fill="#3662C1"/>
<path d="M249.54 24.2573C249.54 24.5126 249.504 24.762 249.44 24.9964C249.116 26.1687 248.046 27.0284 246.769 27.0284C245.239 27.0284 243.998 25.7873 243.998 24.2573C243.998 22.7272 245.239 21.4858 246.769 21.4858C247.664 21.4858 248.458 21.9099 248.963 22.565C249.326 23.0339 249.54 23.6199 249.54 24.2573Z" fill="#3662C1"/>
<path d="M291.466 0C284.41 0 278.668 5.73741 278.668 12.794H281.124C281.124 7.09274 285.762 2.45536 291.466 2.45536C297.168 2.45536 301.805 7.09274 301.805 12.794C301.805 13.9392 301.618 15.0392 301.273 16.067C300.257 19.1059 297.868 21.5193 294.844 22.5651C293.964 22.8718 293.026 23.0639 292.052 23.1181V25.5769C293.188 25.5259 294.283 25.3272 295.322 24.9965C299.473 23.6832 302.716 20.3018 303.837 16.067C304.113 15.0212 304.26 13.9243 304.26 12.794C304.26 5.73741 298.52 0 291.466 0Z" fill="#3662C1"/>
<path d="M295.421 24.2573C295.421 24.5126 295.385 24.762 295.322 24.9964C294.997 26.1687 293.925 27.0284 292.651 27.0284C291.121 27.0284 289.879 25.7873 289.879 24.2573C289.879 22.7272 291.12 21.4858 292.651 21.4858C293.543 21.4858 294.336 21.9099 294.844 22.565C295.208 23.0339 295.421 23.6199 295.421 24.2573Z" fill="#3662C1"/>
<path d="M337.345 0C330.288 0 324.55 5.73741 324.55 12.794H327.006C327.006 7.09274 331.644 2.45536 337.345 2.45536C343.046 2.45536 347.687 7.09274 347.687 12.794C347.687 13.9392 347.501 15.0392 347.155 16.067C346.139 19.1059 343.75 21.5193 340.726 22.5651C339.842 22.8718 338.908 23.0639 337.934 23.1181V25.5769C339.07 25.5259 340.164 25.3272 341.204 24.9965C345.354 23.6832 348.598 20.3018 349.719 16.067C349.995 15.0212 350.143 13.9243 350.143 12.794C350.142 5.73741 344.402 0 337.345 0Z" fill="#3662C1"/>
<path d="M341.303 24.2573C341.303 24.5126 341.267 24.762 341.204 24.9964C340.879 26.1687 339.807 27.0284 338.532 27.0284C337.002 27.0284 335.761 25.7873 335.761 24.2573C335.761 22.7272 337.002 21.4858 338.532 21.4858C339.425 21.4858 340.218 21.9099 340.726 22.565C341.09 23.0339 341.303 23.6199 341.303 24.2573Z" fill="#3662C1"/>
<path d="M225.853 139.629H210.931C209.206 139.629 207.523 138.218 207.19 136.493L204.312 121.572C203.979 119.847 205.118 118.436 206.843 118.436H221.764C223.49 118.436 225.173 119.847 225.506 121.572L228.384 136.493C228.717 138.218 227.578 139.629 225.853 139.629Z" fill="#6D89CF"/>
<path d="M263.506 139.629H248.585C246.859 139.629 245.176 138.218 244.843 136.493L241.965 121.572C241.632 119.847 242.771 118.436 244.496 118.436H259.418C261.143 118.436 262.826 119.847 263.159 121.572L266.037 136.493C266.37 138.218 265.231 139.629 263.506 139.629Z" fill="#6D89CF"/>
<path d="M301.158 139.629H286.237C284.512 139.629 282.828 138.218 282.496 136.493L279.617 121.572C279.285 119.847 280.423 118.436 282.148 118.436H297.07C298.795 118.436 300.478 119.847 300.811 121.572L303.689 136.493C304.022 138.218 302.883 139.629 301.158 139.629Z" fill="#3662C1"/>
<path d="M112.896 139.629H97.9745C96.2492 139.629 94.566 138.218 94.2332 136.493L91.3551 121.572C91.0224 119.847 92.1613 118.436 93.8862 118.436H108.808C110.533 118.436 112.216 119.847 112.549 121.572L115.427 136.493C115.76 138.218 114.621 139.629 112.896 139.629Z" fill="#6D89CF"/>
<path d="M96.5417 94.8319H90.1293C89.3878 94.8319 88.6646 94.2255 88.5215 93.4842L87.2846 87.0719C87.1415 86.3303 87.6309 85.7239 88.3722 85.7239H94.7845C95.5261 85.7239 96.2492 86.3303 96.3923 87.0719L97.6292 93.4842C97.7723 94.2255 97.2829 94.8319 96.5417 94.8319Z" fill="#FA7269"/>
<path d="M150.548 139.629H135.627C133.902 139.629 132.218 138.218 131.886 136.493L129.007 121.572C128.675 119.847 129.814 118.436 131.539 118.436H146.46C148.185 118.436 149.869 119.847 150.201 121.572L153.08 136.493C153.412 138.218 152.273 139.629 150.548 139.629Z" fill="#6D89CF"/>
<path d="M188.201 139.629H173.279C171.554 139.629 169.871 138.218 169.538 136.493L166.659 121.572C166.327 119.847 167.466 118.436 169.191 118.436H184.112C185.837 118.436 187.52 119.847 187.853 121.572L190.732 136.493C191.064 138.218 189.925 139.629 188.201 139.629Z" fill="#6D89CF"/>
<path d="M338.811 139.629H323.889C322.164 139.629 320.481 138.218 320.148 136.493L317.27 121.572C316.937 119.847 318.076 118.436 319.801 118.436H334.722C336.447 118.436 338.131 119.847 338.463 121.572L341.342 136.493C341.674 138.218 340.535 139.629 338.811 139.629Z" fill="#3662C1"/>
<path d="M219.602 107.221H204.68C202.956 107.221 201.272 105.81 200.939 104.085L198.061 89.1635C197.728 87.4386 198.867 86.0273 200.592 86.0273H215.514C217.238 86.0273 218.922 87.4386 219.255 89.1635L222.133 104.085C222.466 105.81 221.327 107.221 219.602 107.221Z" fill="#6D89CF"/>
<path d="M257.254 107.221H242.333C240.608 107.221 238.924 105.81 238.592 104.085L235.714 89.1635C235.381 87.4386 236.52 86.0273 238.245 86.0273H253.166C254.891 86.0273 256.574 87.4386 256.907 89.1635L259.785 104.085C260.118 105.81 258.979 107.221 257.254 107.221Z" fill="#6D89CF"/>
<path d="M294.907 107.221H279.986C278.261 107.221 276.577 105.81 276.245 104.085L273.366 89.1635C273.034 87.4386 274.173 86.0273 275.897 86.0273H290.819C292.544 86.0273 294.227 87.4386 294.56 89.1635L297.438 104.085C297.771 105.81 296.632 107.221 294.907 107.221Z" fill="#3662C1"/>
<path d="M332.56 107.221H317.638C315.913 107.221 314.23 105.81 313.897 104.085L311.019 89.1635C310.686 87.4386 311.825 86.0273 313.55 86.0273H328.472C330.196 86.0273 331.88 87.4386 332.213 89.1635L335.091 104.085C335.423 105.81 334.284 107.221 332.56 107.221Z" fill="#3662C1"/>
<path d="M232.479 173.978H217.557C215.832 173.978 214.148 172.567 213.816 170.842L210.938 155.92C210.605 154.195 211.744 152.784 213.469 152.784H228.39C230.115 152.784 231.799 154.195 232.132 155.92L235.01 170.842C235.343 172.566 234.203 173.978 232.479 173.978Z" fill="#6D89CF"/>
<path d="M270.131 173.978H255.21C253.485 173.978 251.802 172.567 251.469 170.842L248.591 155.92C248.258 154.195 249.397 152.784 251.122 152.784H266.044C267.769 152.784 269.452 154.195 269.785 155.92L272.663 170.842C272.996 172.566 271.857 173.978 270.131 173.978Z" fill="#6D89CF"/>
<path d="M307.784 173.978H292.862C291.138 173.978 289.454 172.567 289.121 170.842L286.243 155.92C285.91 154.195 287.049 152.784 288.774 152.784H303.696C305.42 152.784 307.104 154.195 307.437 155.92L310.315 170.842C310.648 172.566 309.509 173.978 307.784 173.978Z" fill="#3662C1"/>
<path d="M119.521 173.978H104.6C102.875 173.978 101.191 172.567 100.859 170.842L97.9806 155.92C97.6479 154.195 98.7868 152.784 100.512 152.784H115.433C117.158 152.784 118.842 154.195 119.174 155.92L122.053 170.842C122.385 172.566 121.246 173.978 119.521 173.978Z" fill="#6D89CF"/>
<path d="M157.174 173.978H142.253C140.528 173.978 138.844 172.567 138.511 170.842L135.633 155.92C135.3 154.195 136.439 152.784 138.164 152.784H153.086C154.81 152.784 156.494 154.195 156.827 155.92L159.705 170.842C160.038 172.566 158.899 173.978 157.174 173.978Z" fill="#6D89CF"/>
<path d="M194.826 173.978H179.905C178.18 173.978 176.497 172.567 176.164 170.842L173.286 155.92C172.953 154.195 174.092 152.784 175.817 152.784H190.738C192.463 152.784 194.147 154.195 194.48 155.92L197.358 170.842C197.691 172.566 196.552 173.978 194.826 173.978Z" fill="#6D89CF"/>
<path d="M345.436 173.978H330.515C328.79 173.978 327.107 172.567 326.774 170.842L323.896 155.92C323.563 154.195 324.702 152.784 326.427 152.784H341.349C343.073 152.784 344.757 154.195 345.09 155.92L347.968 170.842C348.3 172.566 347.161 173.978 345.436 173.978Z" fill="#3662C1"/>
<path d="M239.105 208.327H224.184C222.459 208.327 220.775 206.916 220.443 205.191L217.564 190.269C217.231 188.545 218.371 187.133 220.096 187.133H235.017C236.742 187.133 238.425 188.545 238.758 190.269L241.636 205.191C241.969 206.916 240.829 208.327 239.105 208.327Z" fill="#6D89CF"/>
<path d="M276.757 208.327H261.836C260.111 208.327 258.427 206.916 258.095 205.191L255.216 190.269C254.884 188.545 256.022 187.133 257.748 187.133H272.669C274.394 187.133 276.077 188.545 276.41 190.269L279.288 205.191C279.621 206.916 278.482 208.327 276.757 208.327Z" fill="#6D89CF"/>
<path d="M314.41 208.327H299.488C297.763 208.327 296.08 206.916 295.747 205.191L292.869 190.269C292.536 188.545 293.675 187.133 295.401 187.133H310.321C312.047 187.133 313.73 188.545 314.063 190.269L316.941 205.191C317.274 206.916 316.134 208.327 314.41 208.327Z" fill="#3662C1"/>
<path d="M126.147 208.327H111.226C109.501 208.327 107.818 206.916 107.485 205.191L104.606 190.269C104.274 188.545 105.413 187.133 107.138 187.133H122.059C123.784 187.133 125.468 188.545 125.801 190.269L128.679 205.191C129.011 206.916 127.872 208.327 126.147 208.327Z" fill="#6D89CF"/>
<path d="M163.799 208.327H148.878C147.153 208.327 145.47 206.916 145.137 205.191L142.259 190.269C141.926 188.545 143.065 187.133 144.79 187.133H159.712C161.436 187.133 163.12 188.545 163.453 190.269L166.331 205.191C166.664 206.916 165.525 208.327 163.799 208.327Z" fill="#FA7269"/>
<path d="M201.452 208.327H186.531C184.806 208.327 183.122 206.916 182.79 205.191L179.911 190.269C179.579 188.545 180.717 187.133 182.443 187.133H197.364C199.089 187.133 200.772 188.545 201.105 190.269L203.983 205.191C204.316 206.916 203.177 208.327 201.452 208.327Z" fill="#6D89CF"/>
<path d="M352.062 208.327H337.141C335.416 208.327 333.733 206.916 333.4 205.191L330.522 190.269C330.189 188.545 331.328 187.133 333.053 187.133H347.974C349.699 187.133 351.383 188.545 351.715 190.269L354.594 205.191C354.927 206.916 353.788 208.327 352.062 208.327Z" fill="#3662C1"/>
<path d="M245.356 240.735H230.435C228.71 240.735 227.026 239.324 226.694 237.599L223.816 222.677C223.483 220.953 224.622 219.541 226.347 219.541H241.268C242.993 219.541 244.677 220.953 245.009 222.677L247.887 237.599C248.22 239.324 247.081 240.735 245.356 240.735Z" fill="#6D89CF"/>
<path d="M283.009 240.735H268.087C266.362 240.735 264.679 239.324 264.346 237.599L261.467 222.677C261.135 220.953 262.274 219.541 263.999 219.541H278.92C280.645 219.541 282.329 220.953 282.662 222.677L285.54 237.599C285.873 239.324 284.734 240.735 283.009 240.735Z" fill="#6D89CF"/>
<path d="M320.661 240.735H305.74C304.015 240.735 302.332 239.324 301.999 237.599L299.121 222.677C298.788 220.953 299.927 219.541 301.652 219.541H316.573C318.298 219.541 319.981 220.953 320.314 222.677L323.193 237.599C323.525 239.324 322.386 240.735 320.661 240.735Z" fill="#3662C1"/>
<path d="M132.399 240.735H117.478C115.752 240.735 114.069 239.324 113.736 237.599L110.858 222.677C110.526 220.953 111.665 219.541 113.389 219.541H128.311C130.036 219.541 131.719 220.953 132.052 222.677L134.93 237.599C135.263 239.324 134.123 240.735 132.399 240.735Z" fill="#6D89CF"/>
<path d="M170.051 240.735H155.13C153.405 240.735 151.721 239.324 151.389 237.599L148.51 222.677C148.178 220.953 149.317 219.541 151.042 219.541H165.963C167.688 219.541 169.371 220.953 169.704 222.677L172.582 237.599C172.915 239.324 171.776 240.735 170.051 240.735Z" fill="#6D89CF"/>
<path d="M207.704 240.735H192.782C191.057 240.735 189.374 239.324 189.041 237.599L186.163 222.677C185.83 220.953 186.969 219.541 188.694 219.541H203.616C205.341 219.541 207.024 220.953 207.357 222.677L210.235 237.599C210.568 239.324 209.429 240.735 207.704 240.735Z" fill="#6D89CF"/>
<path d="M141.767 88.9434H102.236C101.654 88.9434 101.177 88.4668 101.177 87.884C101.177 87.3015 101.654 86.825 102.236 86.825H141.767C142.35 86.825 142.826 87.3015 142.826 87.884C142.826 88.4668 142.35 88.9434 141.767 88.9434Z" fill="#6D89CF"/>
<path d="M142.969 93.7307H103.439C102.856 93.7307 102.379 93.2542 102.379 92.6714C102.379 92.0889 102.856 91.6123 103.439 91.6123H142.969C143.552 91.6123 144.029 92.0889 144.029 92.6714C144.029 93.2542 143.552 93.7307 142.969 93.7307Z" fill="#6D89CF"/>
<path d="M99.3699 53.2938H85.8048C84.6937 53.2938 83.7847 52.3848 83.7847 51.2737C83.7847 50.1625 84.6937 49.2532 85.8048 49.2532H99.3699C100.481 49.2532 101.39 50.1625 101.39 51.2737C101.39 52.3845 100.481 53.2938 99.3699 53.2938Z" fill="white"/>
<path d="M136.593 53.2938H123.027C121.916 53.2938 121.007 52.3848 121.007 51.2737C121.007 50.1625 121.916 49.2532 123.027 49.2532H136.593C137.704 49.2532 138.613 50.1625 138.613 51.2737C138.613 52.3845 137.704 53.2938 136.593 53.2938Z" fill="white"/>
<path d="M173.815 53.2938H160.249C159.138 53.2938 158.229 52.3848 158.229 51.2737C158.229 50.1625 159.138 49.2532 160.249 49.2532H173.815C174.926 49.2532 175.835 50.1625 175.835 51.2737C175.835 52.3845 174.926 53.2938 173.815 53.2938Z" fill="white"/>
<path d="M211.037 53.2938H197.472C196.36 53.2938 195.451 52.3848 195.451 51.2737C195.451 50.1625 196.36 49.2532 197.472 49.2532H211.037C212.148 49.2532 213.057 50.1625 213.057 51.2737C213.057 52.3845 212.148 53.2938 211.037 53.2938Z" fill="white"/>
<path d="M248.259 53.2938H234.694C233.583 53.2938 232.674 52.3848 232.674 51.2737C232.674 50.1625 233.583 49.2532 234.694 49.2532H248.259C249.371 49.2532 250.28 50.1625 250.28 51.2737C250.28 52.3845 249.371 53.2938 248.259 53.2938Z" fill="white"/>
<path d="M285.481 53.2938H271.916C270.805 53.2938 269.896 52.3848 269.896 51.2737C269.896 50.1625 270.805 49.2532 271.916 49.2532H285.481C286.592 49.2532 287.501 50.1625 287.501 51.2737C287.502 52.3845 286.592 53.2938 285.481 53.2938Z" fill="white"/>
<path d="M322.703 53.2938H309.138C308.027 53.2938 307.118 52.3848 307.118 51.2737C307.118 50.1625 308.027 49.2532 309.138 49.2532H322.703C323.814 49.2532 324.724 50.1625 324.724 51.2737C324.724 52.3845 323.815 53.2938 322.703 53.2938Z" fill="white"/>
<path d="M236.909 107.515C233.913 107.515 231.732 106.564 230.543 104.719C228.264 101.181 230.023 96.2209 235.773 89.9767C239.973 85.4168 244.877 81.8034 244.926 81.7672C245.119 81.6259 245.39 81.6676 245.531 81.8607C245.673 82.0531 245.631 82.324 245.438 82.4654C245.247 82.6061 226.343 96.6023 231.271 104.25C232.832 106.673 236.173 106.834 238.705 106.54C243.388 105.999 249.495 103.477 255.04 99.7937C260.779 95.9816 264.822 91.6853 266.132 88.0062C266.992 85.5929 266.726 83.8832 265.341 82.9253C263.554 81.6877 259.818 81.687 255.348 82.9222C251.068 84.1052 246.76 86.2358 244.106 88.4824C243.924 88.6363 243.65 88.6134 243.496 88.4314C243.341 88.249 243.364 87.9753 243.546 87.8211C246.29 85.4991 250.724 83.3021 255.117 82.0878C259.901 80.7651 263.807 80.811 265.834 82.2132C267.034 83.0441 268.202 84.7738 266.947 88.2966C265.576 92.1483 261.41 96.6016 255.519 100.515C249.865 104.27 243.616 106.844 238.804 107.4C238.141 107.477 237.508 107.515 236.909 107.515Z" fill="#ED6966"/>
<path d="M315.234 82.9182L313.694 80.013C313.694 80.013 314.458 74.8363 307.971 71.5615C307.971 71.5615 305.601 70.5963 304.262 72.5296C303.029 74.3104 306.612 73.9888 306.42 77.036C306.227 80.0825 307.673 81.8703 309.687 82.8626L311.35 84.7901L315.234 82.9182Z" fill="#FC9290"/>
<path d="M376.538 75.9729C376.538 75.9729 370.967 103.314 340.312 112.248C330.742 115.036 309.003 83.5317 309.003 83.5317C309.003 83.5317 309.767 80.6276 314.556 81.2948C314.556 81.2948 335.723 95.3081 338.388 96.8308C340.752 98.1816 356.303 79.4664 363.392 76.4476C370.481 73.4282 376.538 75.9729 376.538 75.9729Z" fill="#060632"/>
<path d="M286.92 75.4713L288.149 82.1047L321.517 75.9252L320.288 69.2917L286.92 75.4713Z" fill="#ED6966"/>
<path d="M279.758 80.2357L288.13 82.1159L286.901 75.4827L279.758 80.2357Z" fill="#FC9290"/>
<path d="M324.555 70.7862L324.943 72.8831C325.182 74.1731 324.33 75.4124 323.04 75.6514L321.497 75.9373L320.269 69.3038L321.947 68.9929C323.163 68.7678 324.33 69.5709 324.555 70.7862Z" fill="#FC9290"/>
<path d="M413.136 247.849C413.136 247.849 416.939 251.319 416.197 253.785C415.455 256.252 412.023 257.896 411.559 260.909C411.095 263.924 409.24 265.567 407.571 265.567C405.902 265.567 399.611 265.567 399.611 265.567C399.611 265.567 398.382 263.446 401.35 262.807C404.318 262.168 405.438 258.626 405.252 255.338C405.066 252.05 405.53 247.666 405.53 247.666L411.838 246.205L413.136 247.849Z" fill="#060632"/>
<path d="M366.48 256.825C366.48 256.825 367.163 264.723 365.493 265.545L344.126 265.501C344.126 265.501 344.126 263.035 347.558 262.487C350.99 261.939 357.019 259.93 358.039 255.455C359.06 250.98 366.48 256.825 366.48 256.825Z" fill="#060632"/>
<path d="M348.441 145.254C348.441 145.254 349.568 159.099 350.893 175.741C352.693 198.348 354.858 226.117 355.072 231.378C355.442 240.513 356.928 255.125 356.928 255.125C356.928 255.125 360.451 258.596 367.502 257.133C367.502 257.133 373.785 236.274 375.58 214.204C375.608 213.842 375.636 213.478 375.664 213.114C377.333 190.646 379.929 143.335 379.929 143.335L348.441 145.254Z" fill="#FA7269"/>
<path d="M348.441 145.254C348.441 145.254 349.568 159.099 350.893 175.741L375.58 214.204C375.608 213.842 375.636 213.478 375.664 213.114C377.333 190.646 379.929 143.335 379.929 143.335L348.441 145.254Z" fill="#E75755"/>
<path d="M353.587 146.898C353.587 146.898 373.9 197.039 387.257 220.602C400.614 244.166 404.788 250.742 404.788 250.742C404.788 250.742 412.44 247.727 413.136 245.673C413.136 245.673 408.028 200.182 399.084 189.093C394.029 182.827 388.092 164.022 387.814 157.446C387.536 150.871 386.005 137.856 386.005 137.856L353.587 146.898Z" fill="#FA7269"/>
<path d="M380.313 69.6272C380.313 69.6272 366.569 76.259 358.646 73.7985C358.646 73.7985 360.596 71.3379 364.009 69.5074C363.735 67.9169 363.522 66.5366 363.4 65.3664C363.064 62.6658 363.064 61.135 363.064 61.135L368.367 56.9642L373.395 52.9731C372.999 64.1954 380.313 69.6272 380.313 69.6272Z" fill="#FC9290"/>
<path d="M347.573 146.397C347.816 146.608 348.091 146.726 348.398 146.726C351.383 146.665 360.069 148.315 367.411 147.565C373.628 146.965 379.114 145.165 384.996 142.587C385.789 142.226 387.588 141.265 387.556 140.426C387.524 139.465 387.435 138.116 387.313 136.373C387.067 132.944 386.72 128.077 386.61 122.305C386.528 118.027 386.574 113.253 386.885 108.196C386.903 107.856 386.921 107.513 386.935 107.171C387.024 105.317 387.067 103.45 387.067 101.625C387.1 95.7427 386.674 90.1324 385.821 85.122C384.325 76.4186 381.521 69.6086 377.379 66.5763C376.828 66.155 373.414 67.8049 370.247 69.3367C367.351 70.7476 364.458 70.8976 361.715 70.3582L358.973 72.758C355.647 75.7865 351.991 79.9577 350.376 86.2606C349.037 91.6031 348.245 101.263 347.816 111.288C347.606 115.848 347.452 120.409 347.391 124.759V124.909C347.358 125.359 347.358 125.812 347.358 126.262C347.208 137.394 347.358 146.248 347.573 146.397Z" fill="#0B0754"/>
<path d="M373.487 57.2641C373.487 57.2641 370.013 63.5958 363.4 65.3659C363.064 62.6653 363.064 61.1345 363.064 61.1345L368.367 56.9636L373.487 57.2641Z" fill="#EA8888"/>
<path d="M360.647 60.9519C360.647 60.9519 373.758 63.0968 374.989 55.0363C376.22 46.9762 378.741 41.8244 370.422 40.1141C362.102 38.4038 360.003 41.2381 358.927 43.8304C357.852 46.4222 357.268 60.1864 360.647 60.9519Z" fill="#FC9290"/>
<path d="M379.754 39.1491C379.874 39.0126 380.148 38.9025 380.759 38.8692C380.759 38.8692 380.271 38.5635 379.618 38.5476C379.49 37.698 379.038 36.1943 377.576 35.8286C377.576 35.8286 378.362 36.2475 378.464 37.1509C376.771 35.4114 373.142 34.1457 363.093 34.9387C349.851 35.9842 354.215 44.4631 355.93 45.4739C357.644 46.4847 361.959 43.7139 365.154 43.9668C368.348 44.2204 368.956 48.8365 370.039 49.4698C371.123 50.103 370.697 48.9831 372.163 48.3204C373.629 47.6577 373.768 50.087 373.345 51.6667C372.921 53.2464 374.936 55.3301 374.936 55.3301C374.936 55.3301 374.936 55.3301 376.971 53.1373C379.007 50.9446 380.926 41.6584 380 39.6789C379.919 39.5041 379.838 39.3273 379.754 39.1491Z" fill="#0B0B36"/>
<path d="M313.667 79.8753C313.667 79.8753 314.118 78.0934 312.881 77.2921C311.645 76.4908 310.508 74.3129 309.987 74.6078C308.908 75.2188 310.578 77.1198 310.272 79.4908C310.165 80.3213 312.098 82.4963 313.667 79.8753Z" fill="#FC9290"/>
<path d="M386.61 122.306C386.528 118.027 386.574 113.253 386.885 108.196C386.903 107.856 386.921 107.514 386.935 107.171C385.689 100.996 383.803 95.5178 381.029 95.3396C381.029 95.3396 372.761 108.332 386.61 122.306Z" fill="#060632"/>
<path d="M397.545 144.71C397.545 144.71 396.857 151.41 396.101 152.677C395.344 153.945 392.125 157.994 390.754 158.789C389.382 159.583 391.591 153.453 391.312 152.26C391.032 151.067 390.183 154.437 389.579 154.516C388.974 154.596 389.13 151.563 389.108 150.458C389.086 149.355 392.049 146.63 393.094 144.28C394.138 141.929 397.545 144.71 397.545 144.71Z" fill="#FC9290"/>
<path d="M377.371 66.5098C377.371 66.5098 385.668 70.4382 389.645 76.4771C395.815 85.845 402.967 119.986 403.099 123.147C403.231 126.309 397.879 148.629 397.879 148.629C397.879 148.629 392.451 148.271 391.051 145.531C391.051 145.531 392.135 122.598 391.448 121.124C390.761 119.649 368.818 90.3611 371.286 84.1114C373.753 77.8623 377.371 66.5098 377.371 66.5098Z" fill="#0B0754"/>
<path d="M284.048 77.3816L284.485 81.2975L279.758 80.2357L284.048 77.3816Z" fill="#ED6966"/>
</svg>
