<svg xmlns="http://www.w3.org/2000/svg" width="62" height="62" viewBox="0 0 62 62" fill="none">
  <path fill-rule="evenodd" clip-rule="evenodd" d="M41.3332 23.2498C41.3332 25.9904 40.2445 28.6187 38.3066 30.5566C36.3687 32.4945 33.7404 33.5832 30.9998 33.5832C28.2593 33.5832 25.6309 32.4945 23.6931 30.5566C21.7552 28.6187 20.6665 25.9904 20.6665 23.2498C20.6665 20.5093 21.7552 17.8809 23.6931 15.9431C25.6309 14.0052 28.2593 12.9165 30.9998 12.9165C33.7404 12.9165 36.3687 14.0052 38.3066 15.9431C40.2445 17.8809 41.3332 20.5093 41.3332 23.2498ZM36.1665 23.2498C36.1665 24.6201 35.6222 25.9343 34.6532 26.9032C33.6843 27.8722 32.3701 28.4165 30.9998 28.4165C29.6296 28.4165 28.3154 27.8722 27.3465 26.9032C26.3775 25.9343 25.8332 24.6201 25.8332 23.2498C25.8332 21.8796 26.3775 20.5654 27.3465 19.5965C28.3154 18.6275 29.6296 18.0832 30.9998 18.0832C32.3701 18.0832 33.6843 18.6275 34.6532 19.5965C35.6222 20.5654 36.1665 21.8796 36.1665 23.2498Z" fill="black"/>
  <path fill-rule="evenodd" clip-rule="evenodd" d="M30.9999 2.58325C15.3062 2.58325 2.58325 15.3062 2.58325 30.9999C2.58325 46.6937 15.3062 59.4166 30.9999 59.4166C46.6937 59.4166 59.4166 46.6937 59.4166 30.9999C59.4166 15.3062 46.6937 2.58325 30.9999 2.58325ZM7.74992 30.9999C7.74992 36.3991 9.59184 41.3694 12.6789 45.3167C14.8469 42.4697 17.6438 40.1623 20.8511 38.5751C24.0584 36.9878 27.5893 36.1635 31.1678 36.1666C34.7001 36.1632 38.1865 36.9662 41.3615 38.5143C44.5364 40.0624 47.3162 42.3147 49.4888 45.0998C51.7272 42.1641 53.2342 38.7376 53.8854 35.1038C54.5365 31.47 54.313 27.7334 53.2334 24.2031C52.1537 20.6729 50.2489 17.4505 47.6766 14.8025C45.1043 12.1546 41.9384 10.1572 38.4409 8.97573C34.9434 7.79424 31.2148 7.46258 27.5637 8.00818C23.9126 8.55379 20.4439 9.96097 17.4446 12.1133C14.4453 14.2656 12.0016 17.1012 10.3158 20.3855C8.62992 23.6698 7.75038 27.3083 7.74992 30.9999ZM30.9999 54.2499C25.6626 54.2579 20.4864 52.4218 16.3473 49.0523C18.0133 46.6672 20.2309 44.7198 22.8112 43.3759C25.3916 42.0319 28.2585 41.3312 31.1678 41.3333C34.0409 41.331 36.8731 42.0141 39.4291 43.3261C41.9852 44.638 44.1914 46.5409 45.8644 48.8766C41.6931 52.3556 36.4316 54.2575 30.9999 54.2499Z" fill="black"/>
</svg>