<svg xmlns="http://www.w3.org/2000/svg" width="114" height="73" viewBox="0 0 114 73" fill="none">
  <path d="M113.462 70.7537H108.294L89.4917 41.5662H89.2948C89.3276 42.1569 89.3604 42.8131 89.3932 43.535C89.4588 44.2569 89.5081 45.0444 89.5409 45.8976C89.5737 46.7179 89.6065 47.5711 89.6393 48.457C89.6721 49.343 89.6885 50.2289 89.6885 51.1149V70.7537H85.6033V35.6106H90.7221L109.475 64.6996H109.672C109.639 64.3059 109.606 63.7645 109.573 63.0754C109.541 62.3535 109.508 61.566 109.475 60.7128C109.442 59.8269 109.409 58.9245 109.377 58.0057C109.344 57.0869 109.327 56.2338 109.327 55.4463V35.6106H113.462V70.7537Z" fill="black"/>
  <path d="M82.3711 70.7537L78.1381 59.876H64.2089L60.0252 70.7537H55.5461L69.2785 35.4629H73.2654L86.9485 70.7537H82.3711ZM72.8716 45.3069C72.7732 45.0444 72.6091 44.5686 72.3794 43.8795C72.1497 43.1904 71.92 42.485 71.6903 41.7631C71.4934 41.0083 71.3294 40.4341 71.1981 40.0404C71.0341 40.6966 70.8536 41.3693 70.6567 42.0584C70.4926 42.7146 70.3122 43.3217 70.1153 43.8795C69.9512 44.4373 69.8035 44.9131 69.6723 45.3069L65.6855 55.9384H76.8092L72.8716 45.3069Z" fill="black"/>
  <path d="M37.3234 70.7537L25.7567 39.942H25.5598C25.6254 40.5982 25.6747 41.435 25.7075 42.4522C25.7731 43.4694 25.8223 44.5851 25.8551 45.7991C25.8879 46.9804 25.9044 48.1945 25.9044 49.4414V70.7537H21.8191V35.6106H28.3654L39.1938 64.4043H39.3906L50.4159 35.6106H56.913V70.7537H52.5324V49.1461C52.5324 47.9976 52.5488 46.8656 52.5816 45.7499C52.6144 44.6015 52.6637 43.535 52.7293 42.5506C52.7949 41.5334 52.8441 40.6803 52.8769 39.9912H52.6801L40.9657 70.7537H37.3234Z" fill="black"/>
  <path d="M17.2979 69.2156H12.8991V10.3941H2V3.07617H28.1481V10.3941H17.2979V69.2156Z" fill="black"/>
  <path fill-rule="evenodd" clip-rule="evenodd" d="M113 72.2919H105.455L89.121 46.9358C89.1395 47.4136 89.158 47.9017 89.1764 48.4001C89.2099 49.3051 89.2267 50.21 89.2267 51.115V72.2919H82.0652V34.0725H89.5607L105.888 59.3986C105.872 58.9566 105.856 58.5106 105.839 58.0607C105.806 57.1265 105.789 56.2549 105.789 55.4463V34.0725H113V72.2919ZM107.524 61.9369C107.54 62.333 107.557 62.7125 107.573 63.0754C107.575 63.1044 107.576 63.1331 107.578 63.1616C107.606 63.7431 107.634 64.2156 107.662 64.579C107.665 64.6207 107.669 64.6609 107.672 64.6997H107.475L106.462 63.1283L106.461 63.126L88.7222 35.6106H83.6033V70.7538H87.6886V51.115C87.6886 50.229 87.6722 49.343 87.6393 48.4571C87.6065 47.5711 87.5737 46.718 87.5409 45.8976C87.5201 45.3573 87.4928 44.8432 87.4588 44.3555C87.4392 44.0732 87.4173 43.7997 87.3933 43.5351C87.3866 43.3888 87.38 43.2453 87.3733 43.1044C87.3494 42.5976 87.3255 42.1258 87.3016 41.6887C87.2993 41.6476 87.2971 41.6068 87.2948 41.5663H87.4917L106.294 70.7538H111.462V35.6106H107.327V55.4463C107.327 56.2338 107.344 57.087 107.377 58.0058C107.409 58.9245 107.442 59.8269 107.475 60.7129C107.491 61.1371 107.508 61.5451 107.524 61.9369ZM89.0779 45.8373C89.0779 45.8369 89.0779 45.8377 89.0779 45.8373L88.4293 45.8621L89.0779 45.8373Z" fill="black"/>
  <path fill-rule="evenodd" clip-rule="evenodd" d="M79.3191 72.2921L75.0862 61.4144H63.2652L59.0815 72.2921H51.2971L66.2266 33.925H72.3186L87.1946 72.2921H79.3191ZM62.2088 59.8763H76.1381L80.371 70.7539H84.9485L71.2653 35.4632H67.2785L53.5461 70.7539H58.0251L62.2088 59.8763ZM68.4342 42.884C68.3331 43.2317 68.2268 43.5637 68.1152 43.8798C67.9512 44.4376 67.8035 44.9134 67.6723 45.3072L63.6854 55.9387H74.8092L70.8716 45.3072C70.7731 45.0447 70.6091 44.5689 70.3794 43.8798C70.2664 43.5408 70.1533 43.1977 70.0403 42.8508C69.9931 42.7057 69.9458 42.5599 69.8986 42.4135C69.8934 42.3974 69.8882 42.3813 69.883 42.3653C69.8188 42.1659 69.7545 41.9653 69.6903 41.7633C69.4934 41.0086 69.3293 40.4344 69.1981 40.0406C69.0362 40.6881 68.8584 41.3515 68.6646 42.0309C68.6619 42.0402 68.6593 42.0494 68.6567 42.0587C68.6536 42.0708 68.6506 42.083 68.6475 42.0951C68.5792 42.3665 68.5081 42.6295 68.4342 42.884ZM69.265 45.383C69.3303 45.5705 69.3855 45.7249 69.4304 45.8446C69.4307 45.8455 69.431 45.8464 69.4314 45.8473L72.5993 54.4006H65.905L69.1225 45.8206L69.1315 45.7936C69.1746 45.6642 69.2191 45.5273 69.265 45.383Z" fill="black"/>
  <path fill-rule="evenodd" clip-rule="evenodd" d="M34.2579 72.2919L25.4411 48.8054C25.442 49.0165 25.4425 49.2285 25.4425 49.4415V72.2919H18.281V34.0725H27.4303L37.3043 60.3285L47.3579 34.0725H56.4512V72.2919H48.9943V49.1462C48.9943 49.0101 48.9945 48.8742 48.995 48.7385L40.0259 72.2919H34.2579ZM50.5817 45.75C50.5488 46.8656 50.5324 47.9977 50.5324 49.1462V70.7538H54.913V35.6106H48.416L37.3907 64.4044H37.1938L26.3654 35.6106H19.8191V70.7538H23.9044V49.4415C23.9044 48.1946 23.888 46.9805 23.8552 45.7992C23.8428 45.3396 23.828 44.8941 23.8109 44.4627C23.7827 43.7545 23.7483 43.0844 23.7075 42.4522C23.6964 42.1075 23.6834 41.7834 23.6685 41.4801C23.641 40.9206 23.6071 40.4317 23.5669 40.0133C23.5645 39.9893 23.5622 39.9655 23.5599 39.942H23.7567L35.3234 70.7538H38.9657L50.6801 39.9912H50.877C50.8758 40.0156 50.8746 40.0401 50.8734 40.0648C50.8527 40.492 50.8259 40.9802 50.793 41.5293C50.7738 41.8491 50.7526 42.1896 50.7293 42.5507C50.6891 43.1538 50.6551 43.7877 50.6272 44.4523C50.6095 44.8726 50.5944 45.3051 50.5817 45.75ZM25.3927 45.7576C25.3927 45.7572 25.3928 45.758 25.3927 45.7576V45.7576Z" fill="black"/>
  <path fill-rule="evenodd" clip-rule="evenodd" d="M18.3661 72.2919H10.9072V13.1736H0V0H29.2244V13.1736H18.3661V72.2919ZM12.4357 10.2642V69.3826H16.8377V10.2642H27.6959V2.90937H1.52847V10.2642H12.4357Z" fill="black"/>
</svg>